<svg width="24" height="24" viewBox="0 0 24 24" fill="none" xmlns="http://www.w3.org/2000/svg">
<path d="M18.406 7.034C19.2013 7.034 19.846 6.38929 19.846 5.594C19.846 4.79871 19.2013 4.154 18.406 4.154C17.6107 4.154 16.966 4.79871 16.966 5.594C16.966 6.38929 17.6107 7.034 18.406 7.034Z" fill="#FF2E00"/>
<path d="M12 5.838C10.7813 5.838 9.58991 6.1994 8.57658 6.87648C7.56324 7.55357 6.77344 8.51595 6.30705 9.64191C5.84067 10.7679 5.71864 12.0068 5.9564 13.2021C6.19416 14.3975 6.78104 15.4954 7.64281 16.3572C8.50458 17.219 9.60254 17.8058 10.7979 18.0436C11.9932 18.2814 13.2321 18.1593 14.3581 17.6929C15.4841 17.2266 16.4464 16.4368 17.1235 15.4234C17.8006 14.4101 18.162 13.2187 18.162 12C18.162 10.3657 17.5128 8.79841 16.3572 7.64281C15.2016 6.48721 13.6343 5.838 12 5.838ZM12 16C11.2089 16 10.4355 15.7654 9.77772 15.3259C9.11992 14.8864 8.60723 14.2616 8.30448 13.5307C8.00173 12.7998 7.92252 11.9956 8.07686 11.2196C8.2312 10.4437 8.61216 9.73098 9.17157 9.17157C9.73098 8.61216 10.4437 8.2312 11.2196 8.07686C11.9956 7.92252 12.7998 8.00173 13.5307 8.30448C14.2616 8.60723 14.8864 9.11992 15.3259 9.77772C15.7654 10.4355 16 11.2089 16 12C16 13.0609 15.5786 14.0783 14.8284 14.8284C14.0783 15.5786 13.0609 16 12 16Z" fill="#FF2E00"/>
<path d="M12 2.162C15.204 2.162 15.584 2.174 16.849 2.232C17.6098 2.24103 18.3635 2.38073 19.077 2.645C19.5947 2.84469 20.0648 3.15055 20.4571 3.54288C20.8495 3.93521 21.1553 4.40534 21.355 4.923C21.6193 5.63653 21.759 6.39016 21.768 7.151C21.826 8.416 21.838 8.796 21.838 12.001C21.838 15.206 21.826 15.584 21.768 16.849C21.759 17.6098 21.6193 18.3635 21.355 19.077C21.1553 19.5947 20.8495 20.0648 20.4571 20.4571C20.0648 20.8495 19.5947 21.1553 19.077 21.355C18.3635 21.6193 17.6098 21.759 16.849 21.768C15.584 21.826 15.204 21.838 12 21.838C8.796 21.838 8.416 21.826 7.151 21.768C6.39016 21.759 5.63653 21.6193 4.923 21.355C4.40534 21.1553 3.93521 20.8495 3.54288 20.4571C3.15055 20.0648 2.84469 19.5947 2.645 19.077C2.38073 18.3635 2.24103 17.6098 2.232 16.849C2.174 15.584 2.162 15.204 2.162 12C2.162 8.796 2.174 8.416 2.232 7.151C2.24103 6.39016 2.38073 5.63653 2.645 4.923C2.84469 4.40534 3.15055 3.93521 3.54288 3.54288C3.93521 3.15055 4.40534 2.84469 4.923 2.645C5.63653 2.38073 6.39016 2.24103 7.151 2.232C8.416 2.174 8.796 2.162 12 2.162ZM12 0C8.741 0 8.332 0.014 7.052 0.072C6.05677 0.0920961 5.07216 0.280769 4.14 0.63C3.34272 0.938297 2.61866 1.40978 2.01422 2.01422C1.40978 2.61866 0.938297 3.34272 0.63 4.14C0.280658 5.07247 0.0919834 6.05744 0.072 7.053C0.014 8.333 0 8.74 0 12C0 15.26 0.014 15.668 0.072 16.948C0.0920961 17.9432 0.280769 18.9278 0.63 19.86C0.938297 20.6573 1.40978 21.3813 2.01422 21.9858C2.61866 22.5902 3.34272 23.0617 4.14 23.37C5.07247 23.7193 6.05744 23.908 7.053 23.928C8.333 23.986 8.741 24 12 24C15.259 24 15.668 23.986 16.948 23.928C17.9436 23.908 18.9285 23.7193 19.861 23.37C20.6583 23.0617 21.3823 22.5902 21.9868 21.9858C22.5912 21.3813 23.0627 20.6573 23.371 19.86C23.72 18.9275 23.9083 17.9425 23.928 16.947C23.986 15.667 24 15.26 24 12C24 8.74 23.986 8.332 23.928 7.052C23.9079 6.05677 23.7192 5.07216 23.37 4.14C23.0617 3.34272 22.5902 2.61866 21.9858 2.01422C21.3813 1.40978 20.6573 0.938297 19.86 0.63C18.9275 0.281 17.9425 0.0926631 16.947 0.073C15.667 0.013 15.26 0 12 0Z" fill="#FF2E00"/>
</svg>
