<svg width="27" height="22" viewBox="0 0 27 22" fill="none" xmlns="http://www.w3.org/2000/svg">
<path d="M24.1773 5.66267C24.1947 5.896 24.1947 6.128 24.1947 6.36C24.1947 13.46 18.7907 21.6413 8.91466 21.6413C5.87199 21.6413 3.04532 20.76 0.666656 19.2293C1.09866 19.2787 1.51466 19.296 1.96399 19.296C4.38131 19.3018 6.73018 18.4935 8.63199 17.0013C7.51122 16.981 6.42476 16.6113 5.52431 15.9436C4.62386 15.276 3.95437 14.3439 3.60932 13.2773C3.94132 13.3267 4.27466 13.36 4.62399 13.36C5.10532 13.36 5.58932 13.2933 6.03866 13.1773C4.82234 12.9318 3.72862 12.2725 2.94348 11.3116C2.15834 10.3507 1.73025 9.14753 1.73199 7.90667V7.84C2.44799 8.23867 3.27866 8.488 4.15866 8.52133C3.42144 8.03145 2.81695 7.3667 2.39911 6.58639C1.98127 5.80608 1.76307 4.93447 1.76399 4.04933C1.76399 3.052 2.02932 2.13733 2.49466 1.34C3.84417 3.00003 5.52733 4.35808 7.4351 5.32621C9.34288 6.29434 11.4327 6.85095 13.5693 6.96C13.4867 6.56 13.436 6.14533 13.436 5.72933C13.4356 5.02395 13.5743 4.32541 13.8441 3.67365C14.1139 3.0219 14.5095 2.4297 15.0082 1.93092C15.507 1.43213 16.0992 1.03655 16.751 0.76677C17.4027 0.496993 18.1013 0.358316 18.8067 0.358666C20.3533 0.358666 21.7493 1.00667 22.7307 2.05467C23.933 1.82216 25.086 1.38323 26.1387 0.757333C25.7379 1.99842 24.8983 3.0508 23.7773 3.71733C24.8437 3.5957 25.8859 3.31527 26.8693 2.88533C26.1348 3.95613 25.2247 4.89513 24.1773 5.66267V5.66267Z" fill="#29B2FF"/>
</svg>
