<svg width="20" height="24" viewBox="0 0 20 24" fill="none" xmlns="http://www.w3.org/2000/svg">
<path d="M19.0987 18.2333C18.9587 19.2013 16.9827 21.712 16.0733 22.076C15.764 22.2 15.464 22.1693 15.224 21.9853C15.0693 21.8653 14.9107 21.6227 12.78 18.164L12.1467 17.1333C11.9027 16.764 11.9493 16.2773 12.2507 15.9067C12.548 15.5467 12.9827 15.4133 13.36 15.5573C13.3813 15.568 14.9533 16.0867 14.9533 16.0867C18.5373 17.264 18.6533 17.3093 18.808 17.4227C19.0347 17.608 19.14 17.8973 19.0933 18.2333H19.0987ZM11.9173 12.972C11.664 12.5867 11.668 12.132 11.9307 11.8187L12.9253 10.46C15.1147 7.48 15.2347 7.32267 15.3827 7.21867C15.5112 7.13532 15.6598 7.08833 15.8129 7.0827C15.966 7.07706 16.1177 7.11299 16.252 7.18667C17.12 7.608 18.8733 10.212 18.9787 11.212V11.2453C18.9975 11.3948 18.9753 11.5467 18.9145 11.6845C18.8537 11.8224 18.7565 11.9411 18.6333 12.028C18.4693 12.1333 18.32 12.1947 14.2453 13.1827C13.6013 13.3467 13.2427 13.436 13.032 13.512L13.06 13.4813C12.6573 13.6027 12.2067 13.408 11.952 13.0053L11.9173 12.972ZM9.41732 11.4267C9.22265 11.488 8.62932 11.6733 7.89865 10.4907C7.89865 10.4907 2.97332 2.74 2.85865 2.50133C2.78799 2.23333 2.87332 1.92933 3.11199 1.684C3.84532 0.925332 7.82399 -0.189334 8.86532 0.0639992C9.20532 0.151999 9.43865 0.366666 9.51999 0.667999C9.57999 1.00133 10.064 8.196 10.1333 9.80667C10.2013 11.1853 9.61065 11.368 9.41732 11.4267ZM10.0667 19.3107C10.056 23.08 10.0467 23.2067 9.98532 23.3853C9.87999 23.6667 9.63865 23.8547 9.30532 23.916C8.34532 24.0787 5.34265 22.9693 4.71732 22.2267C4.60331 22.0847 4.53085 21.914 4.50799 21.7333C4.49065 21.6133 4.50799 21.4933 4.55199 21.388C4.62799 21.1933 4.73199 21.0427 7.42932 17.8813L8.22132 16.94C8.49199 16.5933 8.97199 16.4893 9.41999 16.668C9.85332 16.8333 10.124 17.208 10.0947 17.612V19.2907L10.0667 19.3107ZM1.89332 16.9C1.59732 16.892 1.33332 16.7133 1.17999 16.4227C1.06932 16.2067 0.990655 15.852 0.939988 15.42C0.803988 14.1213 0.970655 12.1613 1.35865 11.5387C1.54265 11.2533 1.80932 11.1027 2.10399 11.1133C2.29865 11.1133 2.47199 11.1747 6.32665 12.7613L7.45732 13.2107C7.85999 13.3587 8.10932 13.78 8.08665 14.26C8.05732 14.724 7.78799 15.0813 7.39199 15.188L5.78932 15.6973C2.20399 16.8493 2.08532 16.8813 1.89732 16.8667L1.89332 16.9ZM16.8533 23.996H16.848L16.844 24L16.8533 23.996Z" fill="#F3363B"/>
</svg>
